<mxfile host="app.diagrams.net" modified="2024-07-25T16:17:45.812Z" agent="Mozilla/5.0 (X11; Ubuntu; Linux x86_64; rv:128.0) Gecko/20100101 Firefox/128.0" etag="1GUndGmng_R00r8ONnGu" version="24.6.4" type="device">
  <diagram name="Page-1" id="lbVvN0e2t_hJNDQy0U_e">
    <mxGraphModel dx="1956" dy="541" grid="1" gridSize="10" guides="1" tooltips="1" connect="1" arrows="1" fold="1" page="1" pageScale="1" pageWidth="850" pageHeight="1100" math="0" shadow="0">
      <root>
        <mxCell id="0" />
        <mxCell id="1" parent="0" />
        <mxCell id="6MkGBk8lJvfsWTpHUSG7-1" value="Memory" style="rounded=0;whiteSpace=wrap;html=1;" vertex="1" parent="1">
          <mxGeometry x="130" y="290" width="60" height="80" as="geometry" />
        </mxCell>
        <mxCell id="6MkGBk8lJvfsWTpHUSG7-2" value="control Unit" style="rounded=0;whiteSpace=wrap;html=1;" vertex="1" parent="1">
          <mxGeometry x="365" y="180" width="120" height="60" as="geometry" />
        </mxCell>
        <mxCell id="6MkGBk8lJvfsWTpHUSG7-3" value="Register File" style="rounded=0;whiteSpace=wrap;html=1;" vertex="1" parent="1">
          <mxGeometry x="600" y="290" width="120" height="60" as="geometry" />
        </mxCell>
        <mxCell id="6MkGBk8lJvfsWTpHUSG7-4" value="GRU Process" style="rounded=0;whiteSpace=wrap;html=1;" vertex="1" parent="1">
          <mxGeometry x="365" y="295" width="120" height="60" as="geometry" />
        </mxCell>
        <mxCell id="6MkGBk8lJvfsWTpHUSG7-6" value="Program Counter" style="rounded=0;whiteSpace=wrap;html=1;" vertex="1" parent="1">
          <mxGeometry x="800" y="290" width="120" height="60" as="geometry" />
        </mxCell>
        <mxCell id="6MkGBk8lJvfsWTpHUSG7-8" value="" style="endArrow=classic;html=1;rounded=0;entryX=0.5;entryY=0;entryDx=0;entryDy=0;exitX=0.5;exitY=1;exitDx=0;exitDy=0;" edge="1" parent="1" source="6MkGBk8lJvfsWTpHUSG7-2" target="6MkGBk8lJvfsWTpHUSG7-4">
          <mxGeometry relative="1" as="geometry">
            <mxPoint x="280" y="250" as="sourcePoint" />
            <mxPoint x="380" y="250" as="targetPoint" />
          </mxGeometry>
        </mxCell>
        <mxCell id="6MkGBk8lJvfsWTpHUSG7-9" value="gru_enable" style="edgeLabel;resizable=0;html=1;;align=center;verticalAlign=middle;" connectable="0" vertex="1" parent="6MkGBk8lJvfsWTpHUSG7-8">
          <mxGeometry relative="1" as="geometry" />
        </mxCell>
        <mxCell id="6MkGBk8lJvfsWTpHUSG7-10" value="" style="endArrow=classic;html=1;rounded=0;entryX=0.5;entryY=0;entryDx=0;entryDy=0;exitX=0;exitY=0.5;exitDx=0;exitDy=0;" edge="1" parent="1" source="6MkGBk8lJvfsWTpHUSG7-2" target="6MkGBk8lJvfsWTpHUSG7-1">
          <mxGeometry relative="1" as="geometry">
            <mxPoint x="355" y="210" as="sourcePoint" />
            <mxPoint x="150" y="290" as="targetPoint" />
            <Array as="points">
              <mxPoint x="160" y="210" />
            </Array>
          </mxGeometry>
        </mxCell>
        <mxCell id="6MkGBk8lJvfsWTpHUSG7-11" value="mem_enable" style="edgeLabel;resizable=0;html=1;;align=center;verticalAlign=middle;" connectable="0" vertex="1" parent="6MkGBk8lJvfsWTpHUSG7-10">
          <mxGeometry relative="1" as="geometry" />
        </mxCell>
        <mxCell id="6MkGBk8lJvfsWTpHUSG7-14" value="" style="endArrow=classic;html=1;rounded=0;entryX=0.5;entryY=0;entryDx=0;entryDy=0;" edge="1" parent="1" target="6MkGBk8lJvfsWTpHUSG7-3">
          <mxGeometry relative="1" as="geometry">
            <mxPoint x="485" y="209.8" as="sourcePoint" />
            <mxPoint x="585" y="209.8" as="targetPoint" />
            <Array as="points">
              <mxPoint x="660" y="210" />
            </Array>
          </mxGeometry>
        </mxCell>
        <mxCell id="6MkGBk8lJvfsWTpHUSG7-15" value="rf_enable" style="edgeLabel;resizable=0;html=1;;align=center;verticalAlign=middle;" connectable="0" vertex="1" parent="6MkGBk8lJvfsWTpHUSG7-14">
          <mxGeometry relative="1" as="geometry" />
        </mxCell>
        <mxCell id="6MkGBk8lJvfsWTpHUSG7-16" value="" style="endArrow=classic;html=1;rounded=0;entryX=0.5;entryY=0;entryDx=0;entryDy=0;exitX=1;exitY=0.25;exitDx=0;exitDy=0;" edge="1" parent="1" source="6MkGBk8lJvfsWTpHUSG7-2" target="6MkGBk8lJvfsWTpHUSG7-6">
          <mxGeometry relative="1" as="geometry">
            <mxPoint x="630" y="190" as="sourcePoint" />
            <mxPoint x="730" y="190" as="targetPoint" />
            <Array as="points">
              <mxPoint x="860" y="195" />
            </Array>
          </mxGeometry>
        </mxCell>
        <mxCell id="6MkGBk8lJvfsWTpHUSG7-17" value="pc_enable" style="edgeLabel;resizable=0;html=1;;align=center;verticalAlign=middle;" connectable="0" vertex="1" parent="6MkGBk8lJvfsWTpHUSG7-16">
          <mxGeometry relative="1" as="geometry" />
        </mxCell>
        <mxCell id="6MkGBk8lJvfsWTpHUSG7-20" value="" style="endArrow=classic;html=1;rounded=0;exitX=1;exitY=0.5;exitDx=0;exitDy=0;" edge="1" parent="1" source="6MkGBk8lJvfsWTpHUSG7-1" target="6MkGBk8lJvfsWTpHUSG7-4">
          <mxGeometry relative="1" as="geometry">
            <mxPoint x="240" y="324.8" as="sourcePoint" />
            <mxPoint x="340" y="324.8" as="targetPoint" />
          </mxGeometry>
        </mxCell>
        <mxCell id="6MkGBk8lJvfsWTpHUSG7-21" value="mem_to_" style="edgeLabel;resizable=0;html=1;;align=center;verticalAlign=middle;" connectable="0" vertex="1" parent="6MkGBk8lJvfsWTpHUSG7-20">
          <mxGeometry relative="1" as="geometry" />
        </mxCell>
        <mxCell id="6MkGBk8lJvfsWTpHUSG7-23" value="" style="endArrow=classic;html=1;rounded=0;entryX=0;entryY=0.5;entryDx=0;entryDy=0;" edge="1" parent="1" target="6MkGBk8lJvfsWTpHUSG7-1">
          <mxGeometry relative="1" as="geometry">
            <mxPoint y="329.8" as="sourcePoint" />
            <mxPoint x="100" y="329.8" as="targetPoint" />
          </mxGeometry>
        </mxCell>
        <mxCell id="6MkGBk8lJvfsWTpHUSG7-24" value="external_data" style="edgeLabel;resizable=0;html=1;;align=center;verticalAlign=middle;" connectable="0" vertex="1" parent="6MkGBk8lJvfsWTpHUSG7-23">
          <mxGeometry relative="1" as="geometry" />
        </mxCell>
        <mxCell id="6MkGBk8lJvfsWTpHUSG7-25" value="" style="endArrow=classic;html=1;rounded=0;entryX=0;entryY=0.25;entryDx=0;entryDy=0;exitX=1.012;exitY=0.183;exitDx=0;exitDy=0;exitPerimeter=0;" edge="1" parent="1" source="6MkGBk8lJvfsWTpHUSG7-4" target="6MkGBk8lJvfsWTpHUSG7-3">
          <mxGeometry relative="1" as="geometry">
            <mxPoint x="485" y="320" as="sourcePoint" />
            <mxPoint x="585" y="320" as="targetPoint" />
          </mxGeometry>
        </mxCell>
        <mxCell id="6MkGBk8lJvfsWTpHUSG7-26" value="write_to_RF" style="edgeLabel;resizable=0;html=1;;align=center;verticalAlign=middle;" connectable="0" vertex="1" parent="6MkGBk8lJvfsWTpHUSG7-25">
          <mxGeometry relative="1" as="geometry" />
        </mxCell>
        <mxCell id="6MkGBk8lJvfsWTpHUSG7-27" value="" style="endArrow=classic;html=1;rounded=0;entryX=1;entryY=0.75;entryDx=0;entryDy=0;exitX=-0.003;exitY=0.84;exitDx=0;exitDy=0;exitPerimeter=0;" edge="1" parent="1" source="6MkGBk8lJvfsWTpHUSG7-3" target="6MkGBk8lJvfsWTpHUSG7-4">
          <mxGeometry relative="1" as="geometry">
            <mxPoint x="590" y="330" as="sourcePoint" />
            <mxPoint x="690" y="330" as="targetPoint" />
          </mxGeometry>
        </mxCell>
        <mxCell id="6MkGBk8lJvfsWTpHUSG7-28" value="read_from_RF" style="edgeLabel;resizable=0;html=1;;align=center;verticalAlign=middle;" connectable="0" vertex="1" parent="6MkGBk8lJvfsWTpHUSG7-27">
          <mxGeometry relative="1" as="geometry" />
        </mxCell>
        <mxCell id="6MkGBk8lJvfsWTpHUSG7-30" value="" style="endArrow=classic;html=1;rounded=0;entryX=1;entryY=0.5;entryDx=0;entryDy=0;exitX=0;exitY=0.5;exitDx=0;exitDy=0;" edge="1" parent="1" source="6MkGBk8lJvfsWTpHUSG7-6" target="6MkGBk8lJvfsWTpHUSG7-3">
          <mxGeometry relative="1" as="geometry">
            <mxPoint x="680" y="390" as="sourcePoint" />
            <mxPoint x="780" y="390" as="targetPoint" />
          </mxGeometry>
        </mxCell>
        <mxCell id="6MkGBk8lJvfsWTpHUSG7-31" value="PC+1" style="edgeLabel;resizable=0;html=1;;align=center;verticalAlign=middle;" connectable="0" vertex="1" parent="6MkGBk8lJvfsWTpHUSG7-30">
          <mxGeometry relative="1" as="geometry" />
        </mxCell>
        <mxCell id="6MkGBk8lJvfsWTpHUSG7-32" value="" style="endArrow=classic;html=1;rounded=0;exitX=0.5;exitY=1;exitDx=0;exitDy=0;" edge="1" parent="1" source="6MkGBk8lJvfsWTpHUSG7-4">
          <mxGeometry relative="1" as="geometry">
            <mxPoint x="375" y="400" as="sourcePoint" />
            <mxPoint x="425" y="480" as="targetPoint" />
          </mxGeometry>
        </mxCell>
        <mxCell id="6MkGBk8lJvfsWTpHUSG7-33" value="GRU Output" style="edgeLabel;resizable=0;html=1;;align=center;verticalAlign=middle;" connectable="0" vertex="1" parent="6MkGBk8lJvfsWTpHUSG7-32">
          <mxGeometry relative="1" as="geometry" />
        </mxCell>
        <mxCell id="6MkGBk8lJvfsWTpHUSG7-34" value="idle" style="ellipse;whiteSpace=wrap;html=1;" vertex="1" parent="1">
          <mxGeometry x="330" y="660" width="120" height="80" as="geometry" />
        </mxCell>
        <mxCell id="6MkGBk8lJvfsWTpHUSG7-35" value="start = 1" style="endArrow=classic;html=1;rounded=0;entryX=0.5;entryY=0;entryDx=0;entryDy=0;exitX=0.25;exitY=0;exitDx=0;exitDy=0;" edge="1" parent="1" source="6MkGBk8lJvfsWTpHUSG7-1" target="6MkGBk8lJvfsWTpHUSG7-2">
          <mxGeometry relative="1" as="geometry">
            <mxPoint x="70" y="230" as="sourcePoint" />
            <mxPoint x="425" y="90" as="targetPoint" />
            <Array as="points">
              <mxPoint x="145" y="140" />
              <mxPoint x="420" y="140" />
            </Array>
          </mxGeometry>
        </mxCell>
        <mxCell id="6MkGBk8lJvfsWTpHUSG7-37" value="fetch" style="ellipse;whiteSpace=wrap;html=1;" vertex="1" parent="1">
          <mxGeometry x="560" y="820" width="120" height="80" as="geometry" />
        </mxCell>
        <mxCell id="6MkGBk8lJvfsWTpHUSG7-38" value="" style="endArrow=classic;html=1;rounded=0;entryX=0;entryY=0;entryDx=0;entryDy=0;exitX=1;exitY=1;exitDx=0;exitDy=0;" edge="1" parent="1" source="6MkGBk8lJvfsWTpHUSG7-34" target="6MkGBk8lJvfsWTpHUSG7-37">
          <mxGeometry relative="1" as="geometry">
            <mxPoint x="440" y="710" as="sourcePoint" />
            <mxPoint x="540" y="710" as="targetPoint" />
          </mxGeometry>
        </mxCell>
        <mxCell id="6MkGBk8lJvfsWTpHUSG7-39" value="start = 1" style="edgeLabel;resizable=0;html=1;;align=center;verticalAlign=middle;" connectable="0" vertex="1" parent="6MkGBk8lJvfsWTpHUSG7-38">
          <mxGeometry relative="1" as="geometry" />
        </mxCell>
        <mxCell id="6MkGBk8lJvfsWTpHUSG7-40" value="" style="endArrow=classic;html=1;rounded=0;entryX=0.5;entryY=0;entryDx=0;entryDy=0;" edge="1" parent="1" target="6MkGBk8lJvfsWTpHUSG7-34">
          <mxGeometry relative="1" as="geometry">
            <mxPoint x="390" y="590" as="sourcePoint" />
            <mxPoint x="340" y="620" as="targetPoint" />
          </mxGeometry>
        </mxCell>
        <mxCell id="6MkGBk8lJvfsWTpHUSG7-41" value="start = 0" style="edgeLabel;resizable=0;html=1;;align=center;verticalAlign=middle;" connectable="0" vertex="1" parent="6MkGBk8lJvfsWTpHUSG7-40">
          <mxGeometry relative="1" as="geometry" />
        </mxCell>
        <mxCell id="6MkGBk8lJvfsWTpHUSG7-42" value="" style="endArrow=classic;html=1;rounded=0;" edge="1" parent="1" source="6MkGBk8lJvfsWTpHUSG7-37">
          <mxGeometry relative="1" as="geometry">
            <mxPoint x="710" y="859.66" as="sourcePoint" />
            <mxPoint x="810" y="859.66" as="targetPoint" />
          </mxGeometry>
        </mxCell>
        <mxCell id="6MkGBk8lJvfsWTpHUSG7-43" value="mem_enable = 1" style="edgeLabel;resizable=0;html=1;;align=center;verticalAlign=middle;" connectable="0" vertex="1" parent="6MkGBk8lJvfsWTpHUSG7-42">
          <mxGeometry relative="1" as="geometry" />
        </mxCell>
        <mxCell id="6MkGBk8lJvfsWTpHUSG7-44" value="execute" style="ellipse;whiteSpace=wrap;html=1;" vertex="1" parent="1">
          <mxGeometry x="365" y="990" width="120" height="80" as="geometry" />
        </mxCell>
        <mxCell id="6MkGBk8lJvfsWTpHUSG7-45" value="" style="endArrow=classic;html=1;rounded=0;entryX=1;entryY=0;entryDx=0;entryDy=0;exitX=0.5;exitY=1;exitDx=0;exitDy=0;" edge="1" parent="1" source="6MkGBk8lJvfsWTpHUSG7-37" target="6MkGBk8lJvfsWTpHUSG7-44">
          <mxGeometry relative="1" as="geometry">
            <mxPoint x="440" y="1030" as="sourcePoint" />
            <mxPoint x="540" y="1030" as="targetPoint" />
          </mxGeometry>
        </mxCell>
        <mxCell id="6MkGBk8lJvfsWTpHUSG7-47" value="" style="endArrow=classic;html=1;rounded=0;exitX=1;exitY=1;exitDx=0;exitDy=0;" edge="1" parent="1" source="6MkGBk8lJvfsWTpHUSG7-37">
          <mxGeometry relative="1" as="geometry">
            <mxPoint x="700" y="910" as="sourcePoint" />
            <mxPoint x="820" y="888" as="targetPoint" />
          </mxGeometry>
        </mxCell>
        <mxCell id="6MkGBk8lJvfsWTpHUSG7-48" value="RF_enable = 1" style="edgeLabel;resizable=0;html=1;;align=center;verticalAlign=middle;" connectable="0" vertex="1" parent="6MkGBk8lJvfsWTpHUSG7-47">
          <mxGeometry relative="1" as="geometry" />
        </mxCell>
        <mxCell id="6MkGBk8lJvfsWTpHUSG7-49" value="" style="endArrow=classic;html=1;rounded=0;entryX=0.5;entryY=1;entryDx=0;entryDy=0;" edge="1" parent="1" target="6MkGBk8lJvfsWTpHUSG7-1">
          <mxGeometry relative="1" as="geometry">
            <mxPoint x="740" y="320" as="sourcePoint" />
            <mxPoint x="160" y="390" as="targetPoint" />
            <Array as="points">
              <mxPoint x="740" y="390" />
              <mxPoint x="160" y="390" />
            </Array>
          </mxGeometry>
        </mxCell>
        <mxCell id="6MkGBk8lJvfsWTpHUSG7-54" value="" style="endArrow=classic;html=1;rounded=0;exitX=1;exitY=0.5;exitDx=0;exitDy=0;" edge="1" parent="1" source="6MkGBk8lJvfsWTpHUSG7-44">
          <mxGeometry relative="1" as="geometry">
            <mxPoint x="510" y="1040" as="sourcePoint" />
            <mxPoint x="630" y="1030" as="targetPoint" />
          </mxGeometry>
        </mxCell>
        <mxCell id="6MkGBk8lJvfsWTpHUSG7-55" value="GRU_EN" style="edgeLabel;resizable=0;html=1;;align=center;verticalAlign=middle;" connectable="0" vertex="1" parent="6MkGBk8lJvfsWTpHUSG7-54">
          <mxGeometry relative="1" as="geometry" />
        </mxCell>
        <mxCell id="6MkGBk8lJvfsWTpHUSG7-56" value="WriteBackState" style="ellipse;whiteSpace=wrap;html=1;" vertex="1" parent="1">
          <mxGeometry x="200" y="840" width="120" height="80" as="geometry" />
        </mxCell>
        <mxCell id="6MkGBk8lJvfsWTpHUSG7-57" value="" style="endArrow=classic;html=1;rounded=0;entryX=0.5;entryY=1;entryDx=0;entryDy=0;exitX=0;exitY=0.5;exitDx=0;exitDy=0;" edge="1" parent="1" source="6MkGBk8lJvfsWTpHUSG7-44" target="6MkGBk8lJvfsWTpHUSG7-56">
          <mxGeometry relative="1" as="geometry">
            <mxPoint x="370" y="970" as="sourcePoint" />
            <mxPoint x="470" y="970" as="targetPoint" />
          </mxGeometry>
        </mxCell>
        <mxCell id="6MkGBk8lJvfsWTpHUSG7-59" value="" style="endArrow=classic;html=1;rounded=0;exitX=0;exitY=0.5;exitDx=0;exitDy=0;" edge="1" parent="1" source="6MkGBk8lJvfsWTpHUSG7-56">
          <mxGeometry relative="1" as="geometry">
            <mxPoint x="370" y="830" as="sourcePoint" />
            <mxPoint x="10" y="880" as="targetPoint" />
          </mxGeometry>
        </mxCell>
        <mxCell id="6MkGBk8lJvfsWTpHUSG7-60" value="output_done = 1" style="edgeLabel;resizable=0;html=1;;align=center;verticalAlign=middle;" connectable="0" vertex="1" parent="6MkGBk8lJvfsWTpHUSG7-59">
          <mxGeometry relative="1" as="geometry" />
        </mxCell>
        <mxCell id="6MkGBk8lJvfsWTpHUSG7-62" value="" style="endArrow=classic;html=1;rounded=0;entryX=0;entryY=0.5;entryDx=0;entryDy=0;exitX=1;exitY=0.5;exitDx=0;exitDy=0;" edge="1" parent="1" source="6MkGBk8lJvfsWTpHUSG7-56" target="6MkGBk8lJvfsWTpHUSG7-37">
          <mxGeometry width="50" height="50" relative="1" as="geometry">
            <mxPoint x="400" y="870" as="sourcePoint" />
            <mxPoint x="450" y="820" as="targetPoint" />
          </mxGeometry>
        </mxCell>
      </root>
    </mxGraphModel>
  </diagram>
</mxfile>
